<svg id="Layer_1" data-name="Layer 1" xmlns="http://www.w3.org/2000/svg" viewBox="0 0 380 300.08" class=" d-block align-items-baseline d-xl-none pb-3">
    <defs>
    <style>
        .cls-1 {
        fill: #fff;
        }
        .cls-2 {
        fill: #2e6ab3;
        }
    </style>
    </defs>
    <g id="cisnet-logo-svg">
    <rect id="background" class="cls-1" x=".96" y=".96" width="378.08" height="298.16"></rect>
    <path id="puzzle-piece" class="cls-2" d="m358.5,58.14c-2.29-9.55-10.32-15.67-24.45-14.52-13.15,1.07-12.99,7.64-27.89,7.26-14.9-.38-17.96-17.58-17.96-27.13,0-8.59,3.82-22.79,3.82-22.79H.96v298.16l99.81-.93s7.06-14.29,6.89-24.89c-.12-7.7,1.81-18.05-10.04-23.54-15.96-7.4-22.46,4.07-39.65,1.77-23.51-3.14-26.23-32.15-23.31-44.32,2.29-9.55,10.32-15.67,24.45-14.52,13.15,1.07,12.99,7.64,27.89,7.26,14.9-.38,17.96-17.58,17.96-27.13,0-8.59-3.82-22.79-3.82-22.79h194.54s-9.56-15.65-10.18-27.33c-.41-7.69-1.83-16.53,10.02-22.02,15.96-7.4,22.46,4.07,39.65,1.77,23.51-3.14,26.23-32.15,23.31-44.32Z"></path>
    <path id="holding" class="cls-2" d="m380,300.08H0V0h380v300.08Zm-378.08-1.92h376.16V1.92H1.92v296.24Z"></path>
    <g id="NET">
        <path class="cls-2" d="m123.04,165.34h21.68l50.81,78.14v-78.14h22.6v118.75h-21.74l-50.75-77.9v77.9h-22.6v-118.75Z"></path>
        <path class="cls-2" d="m225.5,165.34h64.82v22.12h-42.38v21.47h42.38v21.71h-42.38v31.24h42.38v22.2h-64.82v-118.75Z"></path>
        <path class="cls-2" d="m299.68,165.34h65.63v22.28h-21.63v96.47h-22.93v-96.47h-21.07v-22.28Z"></path>
    </g>
    <g id="CIS">
        <path class="cls-1" d="m134.67,37.1l-15.81,15.07c-10.75-11.37-22.85-17.05-36.29-17.05-11.35,0-20.9,3.88-28.67,11.64-7.77,7.76-11.65,17.32-11.65,28.69,0,7.92,1.72,14.95,5.16,21.09,3.44,6.14,8.31,10.96,14.6,14.46,6.29,3.5,13.28,5.25,20.97,5.25,6.56,0,12.55-1.22,17.99-3.68,5.43-2.45,11.4-6.91,17.91-13.37l15.32,15.99c-8.77,8.56-17.06,14.5-24.86,17.81-7.8,3.31-16.71,4.97-26.72,4.97-18.46,0-33.57-5.85-45.33-17.56-11.76-11.71-17.64-26.71-17.64-45,0-11.84,2.68-22.36,8.03-31.56,5.35-9.2,13.02-16.6,23.01-22.2,9.98-5.6,20.73-8.4,32.25-8.4,9.79,0,19.22,2.07,28.29,6.21,9.07,4.14,16.88,10.02,23.45,17.65Z"></path>
        <path class="cls-1" d="m146.22,16.23h22.44v118.75h-22.44V16.23Z"></path>
        <path class="cls-1" d="m249.8,32.38l-16.74,14.77c-5.88-8.18-11.86-12.27-17.95-12.27-2.97,0-5.39.79-7.28,2.38-1.89,1.59-2.83,3.38-2.83,5.37s.67,3.87,2.02,5.65c1.83,2.37,7.36,7.45,16.58,15.26,8.62,7.21,13.85,11.76,15.69,13.64,4.58,4.63,7.83,9.06,9.74,13.28,1.91,4.23,2.87,8.84,2.87,13.84,0,9.74-3.37,17.79-10.1,24.14-6.73,6.35-15.52,9.53-26.34,9.53-8.46,0-15.83-2.07-22.1-6.22-6.28-4.14-11.65-10.66-16.12-19.54l19-11.46c5.71,10.49,12.29,15.74,19.73,15.74,3.88,0,7.14-1.13,9.78-3.39,2.64-2.26,3.96-4.87,3.96-7.83,0-2.69-1-5.38-2.99-8.07-2-2.69-6.39-6.81-13.18-12.35-12.94-10.55-21.29-18.69-25.07-24.42-3.77-5.73-5.66-11.45-5.66-17.15,0-8.23,3.14-15.3,9.42-21.19,6.28-5.89,14.02-8.84,23.24-8.84,5.93,0,11.57,1.37,16.93,4.12,5.36,2.74,11.17,7.75,17.42,15.01Z"></path>
    </g>
    </g>
</svg>